<svg id="Layer_5" enable-background="new 0 0 64 64" height="512" viewBox="0 0 64 64" width="512" xmlns="http://www.w3.org/2000/svg" xmlns:xlink="http://www.w3.org/1999/xlink"><linearGradient id="SVGID_1_" gradientUnits="userSpaceOnUse" x1="32" x2="32" y1="63" y2="1"><stop offset="0" stop-color="#9f2fff"/><stop offset="1" stop-color="#0bb1d3"/></linearGradient><path d="m8.256 13-3.214 10.713-.042 2.287c0 1.302.839 2.402 2 2.816v12.184h28v-12.184c1.161-.414 2-1.514 2-2.816v-2l-3.256-11zm26.4 10h-7.751l-.8-8h6.151zm-9.656 3c0 .552-.449 1-1 1h-6c-.551 0-1-.448-1-1v-1h8zm-10 0c0 .552-.449 1-1 1h-6c-.551 0-1-.448-1-1v-1h8zm2.105-3 .8-8h6.19l.804 8zm-7.361-8h6.151l-.796 8h-7.755zm9.256 24h-6v-6h6zm2 0v-8h-10v8h-2v-10h5c.771 0 1.468-.301 2-.78.532.48 1.229.78 2 .78h6c.771 0 1.468-.301 2-.78.532.48 1.229.78 2 .78h5v10zm13-12h-6c-.551 0-1-.448-1-1v-1h8v1c0 .552-.449 1-1 1zm-11 10h8v-6h-8zm2-4h4v2h-4zm35-32h-56c-1.654 0-3 1.346-3 3v40c0 1.654 1.346 3 3 3h25c0 1.103.897 2 2 2h.133l1.632 11.425c.21 1.468 1.486 2.575 2.969 2.575h16.531c1.483 0 2.76-1.107 2.969-2.575l1.633-11.425h.133c1.103 0 2-.897 2-2h1c1.654 0 3-1.346 3-3v-40c0-1.654-1.346-3-3-3zm-56 2h56c.551 0 1 .448 1 1v5h-58v-5c0-.552.449-1 1-1zm47.923 46.616c.103.247.104.519.002.766-.103.25-.291.438-.542.543-.485.206-1.099-.042-1.306-.54l-5-11.999c-.05-.12-.074-.246-.075-.372 0-.006-.001-.013-.001-.019.001-.127.024-.254.074-.375.103-.25.291-.438.54-.542.124-.052.254-.078.386-.078.404 0 .766.242.922.617zm-9.589-4.616h3.332l.833 2h-4.999zm2.499-2h-1.666l.833-1.999zm-1.834-4.986c-.002.126-.026.252-.075.372l-5 12c-.207.497-.816.745-1.306.539-.251-.104-.438-.293-.542-.544-.102-.246-.101-.518.002-.765l5-12c.156-.374.518-.616.922-.616.132 0 .262.026.384.077.251.104.438.293.542.544.05.12.073.247.074.374 0 .006-.001.012-.001.019zm-7.997 8.986h-4.002v-2h4.835zm5.998 14h-2v-5c0-.552.449-1 1-1s1 .448 1 1zm8 0h-2v-5c0-.552.449-1 1-1s1 .448 1 1zm4.255-.858c-.069.489-.495.858-.989.858h-1.266v-5c0-1.654-1.346-3-3-3s-3 1.346-3 3v5h-2v-5c0-1.654-1.346-3-3-3s-3 1.346-3 3v5h-1.266c-.494 0-.92-.369-.99-.858l-1.591-11.142h1.033c-.249.699-.243 1.452.041 2.142.305.741.88 1.32 1.62 1.629.366.152.754.23 1.154.23 1.216 0 2.303-.726 2.77-1.847l.897-2.154h6.666l.897 2.153c.467 1.122 1.554 1.848 2.77 1.848.4 0 .788-.078 1.153-.23.74-.309 1.316-.888 1.621-1.628.284-.69.29-1.444.041-2.143h1.032zm3.745-13.142h-4.001l-.833-2h4.834zm3-2h-1c0-1.103-.897-2-2-2h-5.667l-2.563-6.151c-.467-1.123-1.554-1.849-2.769-1.849-.396 0-.784.077-1.155.231-.318.132-.597.323-.846.547-.249-.224-.529-.415-.848-.548-.368-.153-.756-.23-1.152-.23-1.215 0-2.302.726-2.768 1.848l-2.563 6.152h-5.669c-1.103 0-2 .897-2 2h-25c-.551 0-1-.448-1-1v-33h58v33c0 .552-.449 1-1 1zm-45-38h-2v-2h2zm-4 0h-2v-2h2zm-4 0h-2v-2h2zm32 14h20v-8h-20zm2-6h16v4h-16zm-2 8h20v2h-20zm0 4h20v2h-20zm0 4h12v2h-12zm18 0h2v2h-2zm-4 0h2v2h-2z" fill="url(#SVGID_1_)"/></svg>