<svg height="451pt" viewBox="0 -47 451.14953 451" width="451pt" xmlns="http://www.w3.org/2000/svg"><path d="m437.042969 40.414062c1.402343-10.050781 2.105469-20.191406 2.105469-30.339843-92.3125 0-174.722657 57.851562-206.089844 144.671875l27.371094-6.917969c37.230468-63.0625 103.496093-103.363281 176.613281-107.414063zm0 0" fill="#b9f9ec"/><path d="m77.550781 163.984375c34.710938.007813 68.550781 10.882813 96.765625 31.101563l20.125-2.160157c-45.09375-53.453125-118.859375-72.898437-184.441406-48.621093 3.683594 9.964843 8.320312 19.558593 13.835938 28.636718 17.289062-5.925781 35.4375-8.953125 53.714843-8.957031zm0 0" fill="#b9f9ec"/><path d="m369.5 322.746094c22.199219-14.179688 37.910156 8.859375 30.578125 24.570312h-150.808594c.359375-15.207031 12.789063-27.347656 28-27.339844 1.457031-.003906 2.910157.105469 4.351563.328126 5.171875-20.210938 23.652344-34.144532 44.507812-33.554688 20.851563.589844 38.515625 15.542969 42.539063 36.015625.273437-.019531.589843.128906.832031-.019531zm0 0" fill="#d4e1f4"/><path d="m179.890625 347.316406h-150.820313c-7.320312-15.710937 8.378907-38.75 30.589844-24.570312.230469.148437.558594 0 .828125.019531 4.035157-20.460937 21.695313-35.40625 42.542969-35.992187 20.847656-.589844 39.324219 13.332031 44.507812 33.53125 1.441407-.222657 2.894532-.332032 4.351563-.328126 15.207031-.007812 27.640625 12.132813 28 27.339844zm0 0" fill="#d4e1f4"/><path d="m439.148438.0742188c-96.523438 0-182.695313 60.4921872-215.492188 151.2734372-1.257812 3.480469-.492188 7.367188 1.992188 10.109375 2.480468 2.742188 6.273437 3.890625 9.859374 2.984375l33.164063-8.378906c-8.417969 7.304688-16.363281 15.132812-23.792969 23.441406-15.484375 17.277344-28.347656 36.734375-38.171875 57.753906-7.539062-13.132812-18.1875-24.210937-31.011719-32.265624l19.8125-2.125c3.675782-.394532 6.835938-2.785157 8.214844-6.21875 1.375-3.433594.746094-7.347657-1.640625-10.171876-47.808593-56.671874-126.015625-77.289062-195.550781-51.550781-5.179688 1.914063-7.824219 7.667969-5.910156 12.847657 25.546875 69.066406 91.394531 114.921874 165.035156 114.9375.449219 0 .90625 0 1.359375-.007813 3.699219-.027344 7.078125-2.09375 8.789063-5.375 1.710937-3.277344 1.472656-7.234375-.621094-10.285156l-21.066406-30.679688c14.339843 5.878907 32.757812 18.726563 42.507812 46.765625-7.824219 24.730469-11.273438 50.636719-10.1875 76.554688.203125 5.371094 4.613281 9.617187 9.984375 9.621094.128906 0 .257813 0 .386719-.007813 5.519531-.207031 9.824218-4.851563 9.613281-10.371094-2.074219-54.691406 15.71875-103.660156 52.890625-145.554687 11.871094-13.335938 25.164062-25.332032 39.640625-35.777344l-14.167969 56.125c-.90625 3.585938.242188 7.378906 2.984375 9.859375 2.742188 2.484375 6.628907 3.25 10.109375 1.992187 90.777344-32.800781 151.269532-118.972656 151.269532-215.496093 0-5.523438-4.476563-10.0000002-10-10.0000002zm-415.859376 150.3398432c52.59375-15.589843 109.511719-2.398437 149.886719 34.734376l-43.644531 4.6875c-3.5.375-6.542969 2.5625-8.015625 5.761718-1.46875 3.199219-1.152344 6.933594.839844 9.835938l24.832031 36.167968c-54.414062-6.617187-101.402344-41.203124-123.898438-91.1875zm367.894532-20.179687c-20.859375 29.828125-49.179688 53.652344-82.136719 69.101563l15.878906-62.902344c.863281-3.414063-.136719-7.027344-2.625-9.519532-2.492187-2.488281-6.105469-3.484374-9.519531-2.621093l-62.882812 15.882812c32.929687-69.964843 101.769531-116.058593 179-119.855469-1.871094 39.480469-14.953126 77.605469-37.714844 109.914063zm0 0" fill="#1ae5be"/><path d="m401.332031 315.234375c-7.425781-6.5-16.808593-8.460937-26.414062-5.820313-8.785157-19.964843-28.59375-32.800781-50.40625-32.65625-21.8125.140626-41.449219 13.238282-49.96875 33.316407-15.792969 1.242187-29.195313 12.066406-33.730469 27.242187h-52.46875c-4.535156-15.175781-17.9375-26-33.726562-27.242187-8.523438-20.074219-28.164063-33.160157-49.972657-33.304688-21.804687-.140625-41.613281 12.6875-50.402343 32.648438-9.605469-2.640625-18.992188-.6875-26.414063 5.8125-6.332031 5.652343-10.121094 13.609375-10.519531 22.085937h-10.058594v20h443.898438v-20h-39.304688c-.398438-8.476562-4.183594-16.433594-10.511719-22.082031zm-124.0625 14.742187c.945313-.003906 1.886719.066407 2.816407.210938 5.089843.789062 9.949218-2.414062 11.222656-7.40625 3.339844-12.992188 13.875-22.886719 27.046875-25.410156 13.175781-2.519532 26.621093 2.785156 34.523437 13.621094 2.976563 4.066406 5.015625 8.738281 5.976563 13.6875.867187 4.464843 4.644531 7.78125 9.1875 8.066406 2.355469.265625 4.734375-.265625 6.75-1.515625l.089843-.058594c3.769532-2.40625 9.132813-4.519531 13.269532-.898437 2.011718 1.835937 3.308594 4.332031 3.648437 7.039062h-128.976562c3.382812-4.59375 8.742187-7.3125 14.445312-7.335938zm-236.265625.296876c4.132813-3.621094 9.5-1.511719 13.199219.851562 2.042969 1.320312 4.476563 1.894531 6.890625 1.621094 4.550781-.277344 8.335938-3.59375 9.207031-8.066406.960938-4.945313 3-9.617188 5.972657-13.683594 7.902343-10.839844 21.347656-16.144532 34.523437-13.625 13.171875 2.519531 23.710937 12.417968 27.050781 25.410156 1.273438 4.988281 6.132813 8.195312 11.222656 7.40625.929688-.144531 1.871094-.214844 2.816407-.214844 5.703125.027344 11.0625 2.746094 14.445312 7.339844h-128.945312c.339843-2.699219 1.621093-5.191406 3.617187-7.035156zm0 0" fill="#0635c9"/></svg>