<svg id="Layer_5" enable-background="new 0 0 64 64" height="512" viewBox="0 0 64 64" width="512" xmlns="http://www.w3.org/2000/svg" xmlns:xlink="http://www.w3.org/1999/xlink"><linearGradient id="SVGID_1_" gradientUnits="userSpaceOnUse" x1="32" x2="32" y1="63" y2="1"><stop offset="0" stop-color="#9f2fff"/><stop offset="1" stop-color="#0bb1d3"/></linearGradient><path d="m61 43h-6.834l-3.396-8.151c-.467-1.123-1.553-1.849-2.769-1.849-.397 0-.785.078-1.154.231-.741.309-1.317.888-1.621 1.628-.149.364-.223.745-.225 1.127-.002-.382-.076-.764-.225-1.128-.306-.74-.881-1.318-1.623-1.628-.37-.152-.757-.23-1.153-.23-1.215 0-2.302.726-2.769 1.848l-3.396 8.152h-6.835c-1.103 0-2 .897-2 2v2c0 1.103.897 2 2 2h.132l1.632 11.424c.029.2.081.391.146.576h-11.91c-3.859 0-7-3.14-7-7v-7h-3.796l4.796-5.481 4.796 5.481h-3.796v6c0 3.309 2.691 6 6 6v-2c-2.206 0-4-1.794-4-4v-4h6.204l-9.204-10.519-9.204 10.519h6.204v5c0 4.962 4.037 9 9 9h14.734.266 22.266c1.483 0 2.76-1.107 2.97-2.576l1.632-11.424h.132c1.103 0 2-.897 2-2v-2c0-1.103-.897-2-2-2zm-13.925-7.38c.103-.25.29-.438.54-.542.124-.052.254-.078.386-.078.404 0 .766.242.922.617l4.999 11.998c.104.248.104.52.003.765-.104.251-.291.439-.542.544-.484.206-1.099-.042-1.307-.54l-4.999-12c-.102-.245-.103-.516-.002-.764zm-5.574 9.38h6.999l.833 2h-8.666zm3.27-7.846c.151-.364.226-.745.23-1.127.003.383.079.765.231 1.128l2.435 5.845h-5.332zm-3.694-1.537c.156-.375.519-.617.923-.617.132 0 .262.026.384.077.251.105.438.293.542.544.102.246.101.518-.002.765l-5.001 12c-.206.496-.815.745-1.306.539-.251-.105-.438-.292-.541-.544-.102-.247-.101-.518.002-.765zm-12.077 9.383h6.001l-.769 1.846c-.021.05-.029.103-.047.154h-5.185zm9 16h-2v-5c0-.551.448-1 1-1s1 .449 1 1zm8 0h-2v-5c0-.551.448-1 1-1s1 .449 1 1zm8 0h-2v-5c0-.551.448-1 1-1s1 .449 1 1zm3.255-.858c-.069.489-.495.858-.989.858h-.266v-5c0-1.654-1.346-3-3-3s-3 1.346-3 3v5h-2v-5c0-1.654-1.346-3-3-3s-3 1.346-3 3v5h-2v-5c0-1.654-1.346-3-3-3s-3 1.346-3 3v5h-.266c-.494 0-.92-.369-.989-.859l-1.592-11.141h3.031c.017.047.024.095.043.141.304.742.88 1.32 1.619 1.629.365.153.754.231 1.154.231 1.217 0 2.304-.726 2.77-1.847l.064-.154h10.333l.064.154c.467 1.122 1.554 1.847 2.77 1.847.399 0 .788-.078 1.154-.23.739-.309 1.314-.887 1.62-1.628.019-.047.026-.095.043-.143h3.029zm3.745-13.142h-5.184c-.018-.051-.026-.103-.047-.153l-.77-1.847h6.001zm-39 10h2v2h-2zm6 2h-2v-2h2zm-8.96-22.002c.647 0 1.297-.035 1.946-.104 8.155-.875 14.826-7.406 15.862-15.529.716-5.607-1.143-11.101-5.1-15.07l-1.416 1.412c3.517 3.529 5.169 8.415 4.531 13.405-.27 2.119-.982 4.111-2.023 5.895-2.08-3.602-5.458-6.225-9.384-7.367 2.137-1.439 3.544-3.878 3.544-6.64 0-4.411-3.589-8-8-8s-8 3.589-8 8c0 2.762 1.407 5.201 3.542 6.639-3.926 1.142-7.304 3.765-9.384 7.367-1.433-2.479-2.199-5.321-2.156-8.242.123-8.545 7.661-15.764 16.46-15.764h26.538c3.859 0 7 3.14 7 7v15h3.796l-4.796 5.481-4.796-5.481h3.796v-14c0-3.309-2.691-6-6-6h-2v2h2c2.206 0 4 1.794 4 4v12h-6.204l9.204 10.519 9.204-10.519h-6.204v-13c0-4.962-4.037-9-9-9h-26.538c-9.868 0-18.321 8.122-18.46 17.735-.074 5.153 2.067 10.1 5.876 13.571 3.326 3.032 7.674 4.692 12.162 4.692zm12.53-8.129c-2.601 3.294-6.457 5.57-10.796 6.036-.936.1-1.86.101-2.773.046v-3.648l6.196-9.294c3.172 1.272 5.824 3.688 7.373 6.86zm-18.57-15.869c0-3.309 2.691-6 6-6s6 2.691 6 6-2.691 6-6 6-6-2.691-6-6zm9.212 8.379-3.212 4.818-3.212-4.818c1.039-.246 2.114-.379 3.212-.379s2.173.133 3.212.379zm-8.408.63 3.994 5.991-1.798 2.697v4.015c-2.873-.539-5.542-1.849-7.774-3.884-.662-.603-1.248-1.269-1.793-1.963 1.548-3.17 4.199-5.585 7.371-6.856zm25.196-15.009v-2h2v2z" fill="url(#SVGID_1_)"/></svg>