<svg height="460pt" viewBox="-33 0 460 460.501" width="460pt" xmlns="http://www.w3.org/2000/svg"><path d="m197.25 402.25c-53.570312 0-97-43.425781-97-97 0-53.570312 43.429688-97 97-97s97 43.429688 97 97c-.058594 53.546875-43.453125 96.941406-97 97zm0-180c-45.839844 0-83 37.160156-83 83s37.160156 83 83 83 83-37.160156 83-83c-.050781-45.816406-37.179688-82.949219-83-83zm0 0" fill="#1ae5be"/><path d="m185.363281 343.550781c-1.855469.003907-3.636719-.734375-4.949219-2.050781l-33.921874-33.921875c-2.734376-2.734375-2.734376-7.167969 0-9.902344 2.730468-2.734375 7.164062-2.734375 9.898437 0l29.085937 29.085938 54.855469-52.398438c1.804688-1.753906 4.410157-2.40625 6.824219-1.707031 2.417969.699219 4.273438 2.640625 4.863281 5.085938.585938 2.449218-.183593 5.019531-2.019531 6.742187l-59.796875 57.121094c-1.300781 1.25-3.035156 1.945312-4.839844 1.945312zm0 0" fill="#1ae5be"/><path d="m348.371094 144.855469c-2.375-15.332031-15.605469-26.617188-31.121094-26.554688h-31.972656v-30.273437c0-48.617188-39.410156-88.027344-88.027344-88.027344s-88.027344 39.410156-88.027344 88.027344v30.273437h-31.972656c-15.515625-.0625-28.746094 11.222657-31.121094 26.554688l-45.769531 258.394531c-.074219.402344-.109375.8125-.109375 1.21875.039062 30.929688 25.101562 55.996094 56.03125 56.03125h281.9375c30.929688-.035156 55.996094-25.101562 56.03125-56.03125 0-.410156-.035156-.816406-.105469-1.222656zm-225.148438-56.828125c0-40.882813 33.144532-74.027344 74.027344-74.027344 40.886719 0 74.027344 33.144531 74.027344 74.027344v30.273437h-148.054688zm215 358.472656h-281.941406c-22.972656-.023438-41.679688-18.46875-42.03125-41.4375l45.667969-257.828125c.011719-.042969.015625-.085937.023437-.132813 1.304688-8.539062 8.664063-14.835937 17.300782-14.800781h31.972656v46.476563c0 3.867187 3.132812 7 7 7 3.867187 0 7-3.132813 7-7v-46.476563h148.0625v46.476563c0 3.867187 3.136718 7 7 7 3.867187 0 7-3.132813 7-7v-46.476563h31.972656c8.636719-.03125 15.996094 6.261719 17.300781 14.800781.007813.046876.015625.089844.023438.132813l45.675781 257.828125c-.351562 22.96875-19.058594 41.414062-42.03125 41.4375zm0 0" fill="#0635c9"/><path d="m378.21875 416.5h-281.9375c-22.972656-.023438-41.679688-18.46875-42.03125-41.4375l43-242.761719h-20c-8.636719-.035156-15.996094 6.261719-17.300781 14.800781-.003907.046876-.011719.089844-.023438.132813l-45.675781 257.828125c.351562 22.96875 19.058594 41.410156 42.027344 41.4375h281.941406c18.570312-.023438 34.929688-12.21875 40.265625-30.007812-.089844.003906-.175781.007812-.265625.007812zm0 0" fill="#d4e1f4"/></svg>