<svg id="Layer_5" enable-background="new 0 0 64 64" height="512" viewBox="0 0 64 64" width="512" xmlns="http://www.w3.org/2000/svg" xmlns:xlink="http://www.w3.org/1999/xlink"><linearGradient id="SVGID_1_" gradientUnits="userSpaceOnUse" x1="32" x2="32" y1="63" y2="1.013"><stop offset="0" stop-color="#9f2fff"/><stop offset="1" stop-color="#0bb1d3"/></linearGradient><path d="m57 24.46c.608.352 1.298.54 2 .54 1.406 0 2.726-.752 3.441-1.96.544-.918.698-1.994.434-3.03s-.917-1.907-1.832-2.449l-26.671-15.907c-1.434-.855-3.31-.855-4.743 0l-26.668 15.905c-.918.544-1.57 1.415-1.835 2.451-.266 1.036-.111 2.112.433 3.029.717 1.21 2.036 1.961 3.442 1.961.701 0 1.39-.188 1.999-.539v18.539h-1c-1.654 0-3 1.346-3 3v14c0 .352.072.686.184 1h-2.184v2h5 18 2 6 4 12 15v-2h-6zm-53.721-2.441c-.272-.457-.349-.995-.216-1.514s.458-.954.92-1.228l26.671-15.906c.812-.486 1.879-.486 2.692 0l26.674 15.908c.459.271.784.707.917 1.226.132.519.056 1.056-.217 1.515-.541.911-1.826 1.242-2.738.701l-23.611-14.069c-.717-.426-1.536-.652-2.37-.652s-1.654.226-2.371.652l-23.609 14.068c-.917.546-2.201.213-2.742-.701zm5.721 1.254 21.653-12.902c.813-.485 1.879-.487 2.694 0l21.653 12.901v37.728h-4v-1-8-25h-38v16h-4zm23 25.727h-5v-3c0-1.302-.839-2.402-2-2.816v-3.184c0-.552.448-1 1-1h3v4h6v-4h3c.552 0 1 .448 1 1v8c0 .552-.448 1-1 1h-2zm-1-10h2v2h-2zm10 12h2v2h-2zm-.184-2c.112-.314.184-.648.184-1v-8c0-1.654-1.346-3-3-3h-12c-1.654 0-3 1.346-3 3v3h-8v-8h34v14.184c-.314-.112-.648-.184-1-.184zm8.184-16h-34v-4h34zm-36 12h4v4h-4zm-7 16c-.552 0-1-.448-1-1v-14c0-.552.448-1 1-1h5v6h8v-6h5c.552 0 1 .448 1 1v14c0 .552-.448 1-1 1zm20.816 0c.112-.314.184-.648.184-1v-9h5c.552 0 1 .448 1 1v8c0 .552-.448 1-1 1zm9.184 0c-.552 0-1-.448-1-1v-8c0-.552.448-1 1-1h2 1v4h6v-4h3c.552 0 1 .448 1 1v8c0 .552-.448 1-1 1zm3-46h-14v10h14zm-2 4h-4v-2h4zm-6-2v2h-4v-2zm-4 4h4v2h-4zm6 2v-2h4v2zm-16 34h2v2h-2zm4 0h2v2h-2zm-8 0h2v2h-2zm7-32c1.654 0 3-1.346 3-3s-1.346-3-3-3-3 1.346-3 3 1.346 3 3 3zm0-4c.552 0 1 .448 1 1s-.448 1-1 1-1-.448-1-1 .448-1 1-1zm24 4c1.654 0 3-1.346 3-3s-1.346-3-3-3-3 1.346-3 3 1.346 3 3 3zm0-4c.552 0 1 .448 1 1s-.448 1-1 1-1-.448-1-1 .448-1 1-1z" fill="url(#SVGID_1_)"/></svg>